<?xml version="1.0" encoding="UTF-8"?>
<svg xmlns="http://www.w3.org/2000/svg" viewBox="0 0 24 24">
  <path fill="#43E660" d="M7.953 15.066c-.08.163-.08.324-.08.486.08.162.08.324.08.486.08.162.242.324.403.405.161.081.403.162.564.162.242 0 .403-.081.564-.162.242-.081.323-.243.403-.405.08-.162.161-.324.161-.486 0-.162-.08-.323-.161-.486-.08-.162-.242-.324-.403-.405-.161-.081-.403-.162-.564-.162-.242 0-.403.081-.564.162-.161.081-.323.243-.403.405zm8.094 0c-.08.163-.08.324-.08.486.08.162.08.324.08.486.08.162.242.324.403.405.161.081.403.162.564.162.242 0 .403-.081.564-.162.242-.081.323-.243.403-.405.08-.162.161-.324.161-.486 0-.162-.08-.323-.161-.486-.08-.162-.242-.324-.403-.405-.161-.081-.403-.162-.564-.162-.242 0-.403.081-.564.162-.161.081-.323.243-.403.405zM12 0C5.373 0 0 5.373 0 12s5.373 12 12 12 12-5.373 12-12S18.627 0 12 0zm0 21.333c-5.148 0-9.333-4.185-9.333-9.333S6.852 2.667 12 2.667s9.333 4.185 9.333 9.333-4.185 9.333-9.333 9.333zm4.667-13.167c-.161-.081-.403-.162-.564-.162-.242 0-.403.081-.564.162-.242.081-.323.243-.403.405-.08.162-.161.324-.161.486 0 .162.08.323.161.486.08.162.242.324.403.405.161.081.403.162.564.162.242 0 .403-.081.564-.162.242-.081.323-.243.403-.405.08-.162.161-.324.161-.486 0-.162-.08-.323-.161-.486-.08-.162-.242-.324-.403-.405zM12 7.333c-.161-.081-.403-.162-.564-.162-.242 0-.403.081-.564.162-.242.081-.323.243-.403.405-.08.162-.161.324-.161.486 0 .162.08.323.161.486.08.162.242.324.403.405.161.081.403.162.564.162.242 0 .403-.081.564-.162.242-.081.323-.243.403-.405.08-.162.161-.324.161-.486 0-.162-.08-.323-.161-.486-.08-.162-.242-.324-.403-.405z"/>
</svg>
