<?xml version="1.0" encoding="UTF-8"?>
<!-- Generated by Pixelmator Pro 3.6.14 -->
<svg width="2584" height="4824" viewBox="0 0 2584 4824" xmlns="http://www.w3.org/2000/svg">
    <g id="g8">
        <path id="path10" fill="#c0e1bd" stroke="none" d="M 2587.977051 4839.725098 L -0.705987 4839.725098 L -0.705987 -14.055664 L 2587.977051 -14.055664 Z"/>
        <g id="g12">
            <clipPath id="clipPath1">
                <path d="M -14.585103 -27.934869 L 2598.367048 -27.934869 L 2598.367048 4850.115121 L -14.585103 4850.115121 Z"/>
            </clipPath>
            <g id="g14" clip-path="url(#clipPath1)">
                <g id="g20">
                    <path id="path22" fill="#acdaa4" stroke="none" d="M -2.263645 1798.453125 C -2.263645 1798.453125 65.512665 1102.11084 281.627258 924.906006 C 497.743195 747.699951 579.584717 348.362793 579.584717 348.362793 C 579.584717 348.362793 628.179077 138.712402 676.77356 -8.54248 L -0.985483 -13.534668 Z"/>
                </g>
                <g id="g24">
                    <path id="path26" fill="#acdaa4" stroke="none" d="M 2583.88623 1805.08252 C 2583.878174 1810.409424 2542.139893 1787.777344 2539.490234 1786.244629 C 2511.664551 1770.151367 2485.161865 1751.971436 2457.574707 1735.669434 C 2235.059814 1604.170898 2184.691162 1286.228271 2190.050537 1050.933105 C 2190.230957 1043.025391 2190.479248 1035.11792 2190.790771 1027.212891 C 2194.480957 933.626709 2207.648193 841.709473 2230.263916 762.702148 C 2264.213623 644.095703 2286.392822 550.152344 2286.015137 405.567871 C 2285.621582 254.333496 2261.100586 108.324707 2215.71875 -3.146484 L 2586.117432 -8.197266 C 2586.117432 -8.197266 2583.887451 1804.191406 2583.88623 1805.08252"/>
                </g>
                <g id="g28">
                    <g id="g30"/>
                    <g id="g42">
                        <clipPath id="clipPath2">
                            <path d="M 1133.787092 16.221385 L 1492.217204 16.221385 L 1492.217204 350.484675 L 1133.787092 350.484675 Z"/>
                        </clipPath>
                        <g id="g40" opacity="0.449997" clip-path="url(#clipPath2)">
                            <g id="g38">
                                <path id="path36" fill="#f0de87" stroke="none" d="M 1492.221313 183.352539 C 1492.221313 275.655273 1411.983032 350.481934 1313.00354 350.481934 C 1214.025513 350.481934 1133.787109 275.655273 1133.787109 183.352539 C 1133.787109 91.050781 1214.025513 16.224121 1313.00354 16.224121 C 1411.983032 16.224121 1492.221313 91.050781 1492.221313 183.352539"/>
                            </g>
                        </g>
                    </g>
                </g>
                <g id="g44">
                    <g id="g46"/>
                    <g id="g58">
                        <clipPath id="clipPath3">
                            <path d="M 739.437623 584.491097 L 1110.004903 584.491097 L 1110.004903 936.956313 L 739.437623 936.956313 Z"/>
                        </clipPath>
                        <g id="g56" opacity="0.449997" clip-path="url(#clipPath3)">
                            <g id="g54">
                                <path id="path52" fill="#f0de87" stroke="none" d="M 1110.005127 760.721191 C 1110.005127 858.050293 1027.051392 936.949707 924.721558 936.949707 C 822.391663 936.949707 739.437866 858.050293 739.437866 760.721191 C 739.437866 663.393066 822.391663 584.492676 924.721558 584.492676 C 1027.051392 584.492676 1110.005127 663.393066 1110.005127 760.721191"/>
                            </g>
                        </g>
                    </g>
                </g>
                <g id="g60">
                    <g id="g62"/>
                    <g id="g74">
                        <clipPath id="clipPath4">
                            <path d="M 1851.006026 498.080028 L 2306.384989 498.080028 L 2306.384989 959.189231 L 1851.006026 959.189231 Z"/>
                        </clipPath>
                        <g id="g72" opacity="0.75" clip-path="url(#clipPath4)">
                            <g id="g70">
                                <path id="path68" fill="#efec7d" stroke="none" d="M 2306.37915 728.635498 C 2306.37915 855.970703 2204.440186 959.195557 2078.692139 959.195557 C 1952.944214 959.195557 1851.005371 855.970703 1851.005371 728.635498 C 1851.005371 601.300781 1952.944214 498.075684 2078.692139 498.075684 C 2204.440186 498.075684 2306.37915 601.300781 2306.37915 728.635498"/>
                            </g>
                        </g>
                    </g>
                </g>
                <g id="g76">
                    <g id="g78"/>
                    <g id="g90">
                        <clipPath id="clipPath5">
                            <path d="M 1654.185188 365.046413 L 1791.520249 365.046413 L 1791.520249 501.504693 L 1654.185188 501.504693 Z"/>
                        </clipPath>
                        <g id="g88" opacity="0.449997" clip-path="url(#clipPath5)">
                            <g id="g86">
                                <path id="path84" fill="#f0de87" stroke="none" d="M 1791.523315 433.276855 C 1791.523315 470.959961 1760.778687 501.507813 1722.853149 501.507813 C 1684.928955 501.507813 1654.185669 470.959961 1654.185669 433.276855 C 1654.185669 395.594238 1684.928955 365.046387 1722.853149 365.046387 C 1760.778687 365.046387 1791.523315 395.594238 1791.523315 433.276855"/>
                            </g>
                        </g>
                    </g>
                </g>
                <g id="g92">
                    <path id="path94" fill="#acdaa4" stroke="none" d="M -0.241911 1361.634521 C -0.241911 1361.634521 493.201538 1958.215576 1023.045654 1844.966064 C 1023.045654 1844.966064 1686.363403 1681.158936 1738.943359 1800.47583 C 1791.523193 1919.791016 657.008606 2575.019043 151.432007 2289.873047 L -2.26432 2219.092529 L -0.241911 1369.724121"/>
                </g>
                <g id="g96">
                    <g id="g98"/>
                    <g id="g110">
                        <clipPath id="clipPath6">
                            <path d="M 360.763179 1047.487668 L 455.765165 1047.487668 L 455.765165 1141.893819 L 360.763179 1141.893819 Z"/>
                        </clipPath>
                        <g id="g108" opacity="0.449997" clip-path="url(#clipPath6)">
                            <g id="g106">
                                <path id="path104" fill="#f0de87" stroke="none" d="M 455.765137 1094.689941 C 455.765137 1120.756104 434.498871 1141.887451 408.26416 1141.887451 C 382.030823 1141.887451 360.764526 1120.756104 360.764526 1094.689941 C 360.764526 1068.623779 382.030823 1047.492188 408.26416 1047.492188 C 434.498871 1047.492188 455.765137 1068.623779 455.765137 1094.689941"/>
                            </g>
                        </g>
                    </g>
                </g>
                <g id="g112">
                    <g id="g114"/>
                    <g id="g126">
                        <clipPath id="clipPath7">
                            <path d="M 753.102337 1499.819933 L 962.057689 1499.819933 L 962.057689 1707.453819 L 753.102337 1707.453819 Z"/>
                        </clipPath>
                        <g id="g124" opacity="0.449997" clip-path="url(#clipPath7)">
                            <g id="g122">
                                <path id="path120" fill="#f0de87" stroke="none" d="M 962.057922 1603.636963 C 962.057922 1660.970703 915.282349 1707.449951 857.580261 1707.449951 C 799.878235 1707.449951 753.102661 1660.970703 753.102661 1603.636963 C 753.102661 1546.302979 799.878235 1499.823975 857.580261 1499.823975 C 915.282349 1499.823975 962.057922 1546.302979 962.057922 1603.636963"/>
                            </g>
                        </g>
                    </g>
                </g>
                <g id="g128">
                    <path id="path130" fill="#acdaa4" stroke="none" d="M -0.039804 2558.841797 C -0.031715 2562.657471 49.39056 2590.073242 53.769753 2593.35498 C 97.255585 2625.93457 135.67865 2665.383545 167.567993 2709.348389 C 252.436371 2826.349854 276.830658 2951.290283 266.497498 3093.865967 C 265.39325 3109.117676 264.032837 3124.349121 262.547058 3139.567139 C 230.505341 3467.806641 163.866989 3791.378418 91.536201 4112.755371 C 72.15345 4198.875 53.365269 4285.176758 33.278706 4371.091309 C 24.564821 4408.360352 4.005013 4455.615723 4.005013 4494.189941 C 4.005013 4494.188477 -0.03576 2560.995117 -0.039804 2558.841797"/>
                </g>
                <g id="g132">
                    <path id="path134" fill="#acdaa4" stroke="none" d="M 2588.265381 2524.460693 L 2588.265381 2524.246582 C 2491.957031 2727.741211 2389.585449 2938.968262 2211.779297 3077.0625 C 2154.492432 3121.555664 2090.371338 3157.166016 2022.468262 3182.638916 C 1954.565186 3208.111816 1881.023682 3210.697754 1814.220825 3236.128906 C 1701.87207 3278.901611 1603.56958 3352.986328 1511.477173 3428.685303 C 1434.359985 3492.072754 1358.341675 3557.700195 1292.792725 3633.274902 C 1254.871216 3676.995117 1216.851318 3717.137207 1213.061279 3777.735352 C 1206.535645 3882.124023 1247.915405 3981.63208 1291.290649 4074.291992 C 1351.813232 4203.579102 1444.837402 4297.3125 1568.604736 4365.997559 C 1708.911377 4443.858887 1852.274536 4516.213867 1998.251953 4582.841797 C 2192.543457 4671.521484 2388.721191 4756.711914 2586.288818 4837.980469 C 2586.383301 4732.343262 2586.475098 4626.70752 2586.56665 4521.070313 L 2587.194824 3802.918457 C 2587.418945 3545.974121 2587.644043 3289.03125 2587.867676 3032.088379 C 2588.016113 2862.878662 2588.167236 2693.67041 2588.265381 2524.460693"/>
                </g>
                <g id="g136">
                    <g id="g138"/>
                    <g id="g150">
                        <clipPath id="clipPath8">
                            <path d="M 1943.564927 1750.73317 L 2314.124307 1750.73317 L 2314.124307 2103.198632 L 1943.564927 2103.198632 Z"/>
                        </clipPath>
                        <g id="g148" opacity="0.449997" clip-path="url(#clipPath8)">
                            <g id="g146">
                                <path id="path144" fill="#f0de87" stroke="none" d="M 2314.128906 1926.966064 C 2314.128906 2024.29541 2231.175293 2103.194824 2128.845215 2103.194824 C 2026.516846 2103.194824 1943.561768 2024.29541 1943.561768 1926.966064 C 1943.561768 1829.637207 2026.516846 1750.737549 2128.845215 1750.737549 C 2231.175293 1750.737549 2314.128906 1829.637207 2314.128906 1926.966064"/>
                            </g>
                        </g>
                    </g>
                </g>
                <g id="g152">
                    <g id="g154"/>
                    <g id="g166">
                        <clipPath id="clipPath9">
                            <path d="M 1199.240357 2240.951778 L 1712.349685 2240.951778 L 1712.349685 2750.436841 L 1199.240357 2750.436841 Z"/>
                        </clipPath>
                        <g id="g164" opacity="0.449997" clip-path="url(#clipPath9)">
                            <g id="g162">
                                <path id="path160" fill="#f0de87" stroke="none" d="M 1712.350586 2495.689209 C 1712.350586 2636.378662 1597.487183 2750.428955 1455.795776 2750.428955 C 1314.104492 2750.428955 1199.241211 2636.378662 1199.241211 2495.689209 C 1199.241211 2354.998047 1314.104492 2240.947754 1455.795776 2240.947754 C 1597.487183 2240.947754 1712.350586 2354.998047 1712.350586 2495.689209"/>
                            </g>
                        </g>
                    </g>
                </g>
                <g id="g168">
                    <g id="g170"/>
                    <g id="g182">
                        <clipPath id="clipPath10">
                            <path d="M 2116.871806 2491.757377 L 2326.25876 2491.757377 L 2326.25876 2713.993242 L 2116.871806 2713.993242 Z"/>
                        </clipPath>
                        <g id="g180" opacity="0.449997" clip-path="url(#clipPath10)">
                            <g id="g178">
                                <path id="path176" fill="#f0de87" stroke="none" d="M 2326.264893 2602.872803 C 2326.264893 2664.243408 2279.390869 2713.994629 2221.568848 2713.994629 C 2163.746582 2713.994629 2116.871338 2664.243408 2116.871338 2602.872803 C 2116.871338 2541.500732 2163.746582 2491.750977 2221.568848 2491.750977 C 2279.390869 2491.750977 2326.264893 2541.500732 2326.264893 2602.872803"/>
                            </g>
                        </g>
                    </g>
                </g>
                <g id="g184">
                    <g id="g186"/>
                    <g id="g198">
                        <clipPath id="clipPath11">
                            <path d="M 588.412234 3422.14627 L 1085.340995 3422.14627 L 1085.340995 3899.166389 L 588.412234 3899.166389 Z"/>
                        </clipPath>
                        <g id="g196" opacity="0.449997" clip-path="url(#clipPath11)">
                            <g id="g194">
                                <path id="path192" fill="#f0de87" stroke="none" d="M 1085.340576 3660.659668 C 1085.340576 3792.383301 974.099976 3899.166504 836.876892 3899.166504 C 699.653748 3899.166504 588.413147 3792.383301 588.413147 3660.659668 C 588.413147 3528.934814 699.653748 3422.152832 836.876892 3422.152832 C 974.099976 3422.152832 1085.340576 3528.934814 1085.340576 3660.659668"/>
                            </g>
                        </g>
                    </g>
                </g>
                <g id="g200">
                    <g id="g202"/>
                    <g id="g214">
                        <clipPath id="clipPath12">
                            <path d="M 92.186214 4227.151265 L 616.095012 4227.151265 L 616.095012 4785.391575 L 92.186214 4785.391575 Z"/>
                        </clipPath>
                        <g id="g212" opacity="0.449997" clip-path="url(#clipPath12)">
                            <g id="g210">
                                <path id="path208" fill="#f0de87" stroke="none" d="M 616.094971 4506.271484 C 616.094971 4660.424805 498.814148 4785.39209 354.140442 4785.39209 C 209.466766 4785.39209 92.185936 4660.424805 92.185936 4506.271484 C 92.185936 4352.116699 209.466766 4227.150879 354.140442 4227.150879 C 498.814148 4227.150879 616.094971 4352.116699 616.094971 4506.271484"/>
                            </g>
                        </g>
                    </g>
                </g>
                <g id="g216">
                    <g id="g218"/>
                    <g id="g230">
                        <clipPath id="clipPath13">
                            <path d="M 349.110042 2536.25037 L 514.963702 2536.25037 L 514.963702 2719.844699 L 349.110042 2719.844699 Z"/>
                        </clipPath>
                        <g id="g228" opacity="0.449997" clip-path="url(#clipPath13)">
                            <g id="g226">
                                <path id="path224" fill="#f0de87" stroke="none" d="M 514.964661 2628.048828 C 514.964661 2678.749268 477.835968 2719.849854 432.037842 2719.849854 C 386.238373 2719.849854 349.10965 2678.749268 349.10965 2628.048828 C 349.10965 2577.348389 386.238373 2536.247559 432.037842 2536.247559 C 477.835968 2536.247559 514.964661 2577.348389 514.964661 2628.048828"/>
                            </g>
                        </g>
                    </g>
                </g>
                <g id="g232">
                    <g id="g234"/>
                    <g id="g246">
                        <clipPath id="clipPath14">
                            <path d="M 1017.133272 4494.136115 L 1328.054367 4494.136115 L 1328.054367 4827.410079 L 1017.133272 4827.410079 Z"/>
                        </clipPath>
                        <g id="g244" opacity="0.449997" clip-path="url(#clipPath14)">
                            <g id="g242">
                                <path id="path240" fill="#f0de87" stroke="none" d="M 1328.054688 4660.772461 C 1328.054688 4752.804199 1258.451538 4827.410645 1172.593506 4827.410645 C 1086.735474 4827.410645 1017.133667 4752.804199 1017.133667 4660.772461 C 1017.133667 4568.742188 1086.735474 4494.135254 1172.593506 4494.135254 C 1258.451538 4494.135254 1328.054688 4568.742188 1328.054688 4660.772461"/>
                            </g>
                        </g>
                    </g>
                </g>
                <g id="g248">
                    <g id="g250"/>
                    <g id="g262">
                        <clipPath id="clipPath15">
                            <path d="M -5.996675 -13.535082 L 1655.627912 -13.535082 L 1655.627912 2293.291727 L -5.996675 2293.291727 Z"/>
                        </clipPath>
                        <g id="g260" opacity="0.5" clip-path="url(#clipPath15)">
                            <g id="g258">
                                <path id="path256" fill="#93d88b" stroke="none" d="M 616.406433 -11.755371 C 537.373413 251.943359 449.932526 519.695801 321.346436 763.884033 C 297.575043 809.025635 270.28064 854.618652 226.059967 882.347412 C 178.101913 912.422119 154.783524 976.309814 129.546585 1027.050781 C 93.612411 1099.299316 62.625057 1174.276855 40.752045 1252.029053 C 25.273861 1307.053223 4.006227 1368.770508 22.209265 1425.775391 C 34.486614 1464.224121 60.562199 1503.770264 82.607826 1537.619873 C 240.441986 1779.961182 485.707581 1912.275391 773.012329 1922.984619 C 919.618103 1928.449219 1065.528076 1907.049072 1209.182495 1879.851807 C 1345.062744 1854.126953 1495.437012 1784.292969 1635.007446 1824.477051 C 1644.491211 1827.206055 1655.591553 1832.812012 1655.621094 1842.680176 C 1655.633301 1846.687012 1653.666138 1850.423096 1651.472534 1853.777832 C 1637.217285 1875.583252 1609.608643 1888.541504 1587.161255 1900.094971 C 1331.965576 2031.446289 1086.571899 2187.971436 805.956055 2261.35083 C 544.833374 2329.632813 267.377777 2279.721191 16.988743 2193.653076 C 13.322796 2192.392334 9.571884 2191.087158 6.563906 2188.630615 C -16.304142 2169.950439 -1.126654 2076.649902 -0.262424 2049.933838 C 0.835105 2016.00708 3.799922 1981.894531 3.713639 1947.949219 C 2.699759 1544.166992 1.778871 1140.384033 0.812187 736.601807 C 0.222976 490.900879 -0.364877 245.202637 -0.954088 -0.497559 C -0.96351 -4.844238 -0.974291 -9.189453 -0.98507 -13.535156 Z"/>
                            </g>
                        </g>
                    </g>
                </g>
                <g id="g264">
                    <g id="g266"/>
                    <g id="g278">
                        <clipPath id="clipPath16">
                            <path d="M 2272.422001 -8.19614 L 2587.580785 -8.19614 L 2587.580785 1697.854043 L 2272.422001 1697.854043 Z"/>
                        </clipPath>
                        <g id="g276" opacity="0.5" clip-path="url(#clipPath16)">
                            <g id="g274">
                                <path id="path272" fill="#93d88b" stroke="none" d="M 2285.567627 -0.969238 C 2285.567627 -0.969238 2423.091553 333.402344 2296.354004 913.159424 C 2169.616455 1492.916504 2587.580811 1697.854004 2587.580811 1697.854004 L 2586.117676 -8.196289 Z"/>
                            </g>
                        </g>
                    </g>
                </g>
                <g id="g280">
                    <g id="g282"/>
                    <g id="g294">
                        <clipPath id="clipPath17">
                            <path d="M -1.102378 2703.63821 L 156.698092 2703.63821 L 156.698092 4229.909781 L -1.102378 4229.909781 Z"/>
                        </clipPath>
                        <g id="g292" opacity="0.5" clip-path="url(#clipPath17)">
                            <g id="g290">
                                <path id="path288" fill="#93d88b" stroke="none" d="M -1.102378 2703.665527 C -1.102378 2703.665527 352.14502 2679.396484 1.594167 4229.909668 Z"/>
                            </g>
                        </g>
                    </g>
                </g>
                <g id="g296">
                    <g id="g298"/>
                    <g id="g310">
                        <clipPath id="clipPath18">
                            <path d="M 1352.994652 2763.002833 L 2590.277413 2763.002833 L 2590.277413 4623.605337 L 1352.994652 4623.605337 Z"/>
                        </clipPath>
                        <g id="g308" opacity="0.5" clip-path="url(#clipPath18)">
                            <g id="g306">
                                <path id="path304" fill="#93d88b" stroke="none" d="M 2590.277344 2762.998291 C 2590.053467 2813.059814 2555.138672 2863.560791 2530.760498 2905.211426 C 2502.077393 2954.21875 2467.801758 3000.682617 2432.013184 3044.688965 C 2360.136475 3133.068359 2276.497803 3211.896484 2183.850098 3278.193604 C 2153.453125 3299.943848 2121.509766 3320.641357 2085.660645 3331.218506 C 2027.728149 3348.313232 1965.851929 3337.393555 1907.704956 3352.898926 C 1849.241089 3368.491455 1791.141357 3394.500977 1737.375 3421.935547 C 1623.617188 3479.980225 1520.982544 3560.093262 1426.738403 3645.703125 C 1409.298584 3661.545166 1391.967896 3677.932129 1379.241455 3697.759766 C 1355.937866 3734.066162 1349.982666 3779.355957 1354.290405 3822.282227 C 1371.149048 3990.232422 1486.036743 4126.700684 1611.431519 4229.909668 C 1961.982422 4518.439941 2582.187744 4623.60498 2582.187744 4623.60498 C 2582.187744 4623.60498 2590.275879 2763.440674 2590.277344 2762.998291"/>
                            </g>
                        </g>
                    </g>
                </g>
                <g id="g312">
                    <path id="path314" fill="#acdaa4" stroke="none" d="M 105.411148 1247.531006 C 105.411148 1247.531006 63.614697 1474.040771 139.117966 1503.702881 L 46.087162 1432.244385 Z"/>
                </g>
            </g>
        </g>
    </g>
</svg>
